<svg id="Capa_1" enable-background="new 0 0 509.795 509.795" height="512" fill ="#777777" viewBox="0 0 509.795 509.795" width="512" xmlns="http://www.w3.org/2000/svg"><g><path d="m420.831 165.934c0-91.496-74.437-165.934-165.933-165.934s-165.934 74.438-165.934 165.934c0 51.416 23.508 97.445 60.339 127.905l-46.383 189.191 64.555-23.211 49.495 49.977 37.947-154.783 37.947 154.783 49.495-49.977 64.555 23.211-46.39-189.217c36.813-30.461 60.307-76.478 60.307-127.879zm-301.867 0c0-74.955 60.98-135.934 135.934-135.934s135.934 60.979 135.934 135.934-60.979 135.934-135.934 135.934-135.934-60.98-135.934-135.934zm81.625 284.687-25.261-25.507-29.962 10.773 30.429-124.118c16.617 9.049 34.944 15.337 54.361 18.252zm163.879-14.733-29.962-10.773-25.261 25.507-29.568-120.605c19.416-2.92 37.742-9.212 54.357-18.266z"/><path d="m188.313 189.179-6.196 36.124c-1.802 10.507 2.436 20.926 11.06 27.192 4.874 3.541 10.575 5.34 16.315 5.34 4.418 0 8.86-1.066 12.963-3.224l32.442-17.055 32.442 17.055c9.435 4.96 20.655 4.149 29.279-2.116 8.625-6.266 12.862-16.686 11.06-27.192l-6.196-36.124 26.246-25.583c7.633-7.44 10.329-18.361 7.035-28.5s-11.894-17.389-22.444-18.922l-36.271-5.27-16.221-32.867c-4.718-9.56-14.271-15.498-24.931-15.498s-20.213 5.938-24.931 15.498l-16.221 32.867-36.271 5.27c-10.549 1.533-19.149 8.784-22.443 18.922s-.598 21.059 7.035 28.5zm45.355-50.855 21.23-43.016 21.23 43.016 47.472 6.898-34.351 33.484 8.109 47.279-42.459-22.322-42.459 22.322 8.109-47.279-34.351-33.484z"/></g></svg>
