<?xml version="1.0" encoding="UTF-8" standalone="no"?>
<svg
   xmlns:dc="http://purl.org/dc/elements/1.1/"
   xmlns:cc="http://creativecommons.org/ns#"
   xmlns:rdf="http://www.w3.org/1999/02/22-rdf-syntax-ns#"
   xmlns:svg="http://www.w3.org/2000/svg"
   xmlns="http://www.w3.org/2000/svg"
   xmlns:sodipodi="http://sodipodi.sourceforge.net/DTD/sodipodi-0.dtd"
   xmlns:inkscape="http://www.inkscape.org/namespaces/inkscape"
   width="282px"
   height="75px"
   viewBox="0 0 282 75"
   version="1.1"
   id="SVGRoot"
   sodipodi:docname="logo.svg"
   inkscape:version="1.0.2 (394de47547, 2021-03-26)">
  <defs
     id="defs911" />
  <sodipodi:namedview
     id="base"
     pagecolor="#ffffff"
     bordercolor="#666666"
     borderopacity="1.0"
     inkscape:pageopacity="0.0"
     inkscape:pageshadow="2"
     inkscape:zoom="3.2057201"
     inkscape:cx="153.1193"
     inkscape:cy="21.021789"
     inkscape:document-units="px"
     inkscape:current-layer="layer1"
     inkscape:document-rotation="0"
     showgrid="false"
     inkscape:window-width="1696"
     inkscape:window-height="844"
     inkscape:window-x="0"
     inkscape:window-y="27"
     inkscape:window-maximized="1" />
  <metadata
     id="metadata914">
    <rdf:RDF>
      <cc:Work
         rdf:about="">
        <dc:format>image/svg+xml</dc:format>
        <dc:type
           rdf:resource="http://purl.org/dc/dcmitype/StillImage" />
        <dc:title></dc:title>
      </cc:Work>
    </rdf:RDF>
  </metadata>
  <g
     inkscape:label="Layer 1"
     inkscape:groupmode="layer"
     id="layer1">
    <g
       id="Layer1000"
       transform="matrix(1.2510492,0,0,1.2665754,-37.738605,-34.212003)">
      <path
         d="m 54.3807,29.0593 c -1.4444,0.6788 -2.4678,1.5432 -2.2857,1.9307 0.182,0.3874 1.5006,0.1514 2.9452,-0.5272 1.4444,-0.6788 2.4678,-1.5432 2.2857,-1.9306 -0.182,-0.3874 -1.5006,-0.1515 -2.9452,0.5271 z"
         style="fill:#1b1918;fill-rule:evenodd"
         id="path179" />
      <path
         d="m 40.3993,39.5947 c -1.3476,1.681 -1.7285,2.9789 -1.1645,3.2128 0.564,0.2338 2.0597,-0.6246 3.4073,-2.3056 1.3476,-1.6809 1.7043,-2.8828 1.1403,-3.1167 -0.564,-0.2338 -2.0356,0.5285 -3.3831,2.2095 z"
         style="fill:#1b1918;fill-rule:evenodd"
         id="path181" />
      <path
         d="m 32.1747,51.0617 c -0.76,2.0159 -0.8212,3.1135 -0.2125,3.161 0.6087,0.0474 1.4934,-0.8763 2.2534,-2.8922 0.76,-2.0159 0.5569,-3.1164 -0.0518,-3.1639 -0.6087,-0.0475 -1.2291,0.8791 -1.9891,2.8951 z"
         style="fill:#1b1918;fill-rule:evenodd"
         id="path183" />
      <path
         d="m 30.9117,66.1913 c 0.0334,1.0552 0.2927,1.5398 0.7216,1.4047 0.429,-0.1351 0.7803,-0.7555 0.7468,-1.8108 -0.0335,-1.0553 -0.4741,-1.4737 -0.9031,-1.3386 -0.429,0.1351 -0.5988,0.6894 -0.5653,1.7447 z"
         style="fill:#1b1918;fill-rule:evenodd"
         id="path185" />
      <path
         d="m 36.5347,73.0941 c 0.0883,1.7881 1.0965,3.0115 2.2931,2.6656 1.1965,-0.346 1.5903,-1.3448 1.5541,-3.3017 -0.0363,-1.9569 -1.3931,-2.5095 -2.0572,-2.4627 -0.664,0.0468 -1.8783,1.3108 -1.79,3.0988 z"
         style="fill:#1b1918;fill-rule:evenodd"
         id="path187" />
      <path
         d="m 47.5872,78.8971 c 0.6797,0 1.2308,0.7114 1.2308,1.5889 0,0.8776 -0.5511,1.589 -1.2308,1.589 -0.6798,0 -1.2308,-0.7114 -1.2308,-1.589 0,-0.8775 0.551,-1.5889 1.2308,-1.5889 z"
         style="fill:#1b1918;fill-rule:evenodd"
         id="path189" />
      <path
         d="m 44.3198,82.7017 c 0.6797,0 1.2308,0.7114 1.2308,1.5889 0,0.8775 -0.5511,1.5889 -1.2308,1.5889 -0.6798,0 -1.2308,-0.7114 -1.2308,-1.5889 0,-0.8775 0.551,-1.5889 1.2308,-1.5889 z"
         style="fill:#1b1918;fill-rule:evenodd"
         id="path191" />
      <path
         d="m 36.4371,80.7259 c 0.4955,-0.1224 1.0295,0.5109 1.193,1.4147 0.1634,0.9037 -0.1058,1.7355 -0.6011,1.8581 -0.4954,0.1225 -1.0295,-0.511 -1.193,-1.4147 -0.1634,-0.9038 0.1058,-1.7356 0.6011,-1.8581 z"
         style="fill:#1b1918;fill-rule:evenodd"
         id="path193" />
      <path
         d="m 69.1233,27.5059 c 0.8827,0 1.5982,0.142 1.5982,0.3172 0,0.1752 -0.7155,0.3172 -1.5982,0.3172 -0.8828,0 -1.5982,-0.142 -1.5982,-0.3172 0,-0.1752 0.7154,-0.3172 1.5982,-0.3172 z"
         style="fill:#1b1918;fill-rule:evenodd"
         id="path195" />
      <path
         d="m 83.5855,29.5986 c 0.8768,0.1096 1.5689,0.3857 1.5461,0.6171 -0.0227,0.2313 -0.7517,0.3301 -1.6283,0.2207 -0.8767,-0.1096 -1.5688,-0.3857 -1.5461,-0.617 0.0228,-0.2314 0.7518,-0.3302 1.6283,-0.2208 z"
         style="fill:#1b1918;fill-rule:evenodd"
         id="path197" />
      <path
         d="m 92.5771,33.6422 c 0.6306,0 1.122,0.3973 1.122,0.9866 0,0.5893 -0.291,1.187 -0.9215,1.187 -0.6306,0 -1.1419,-0.4474 -1.1419,-1.0367 0,-0.5893 0.3109,-1.1369 0.9414,-1.1369 z"
         style="fill:#1b1918;fill-rule:evenodd"
         id="path199" />
      <path
         d="m 46.6946,36.3808 6.2054,-4.2875 4.5131,0.4513 -0.3385,3.7233 -3.9488,3.0462 -6.5439,0.5642 z"
         style="fill:#1b1918;fill-rule:evenodd"
         id="path201" />
      <path
         d="m 35.9555,49.3058 3.6276,-5.6065 c 0,0 4.214,-3.3712 4.8004,1.0627 l -0.3665,3.1148 -3.6278,5.6065 -4.1445,1.0626 z"
         style="fill:#1b1918;fill-rule:evenodd"
         id="path203" />
      <path
         d="m 59.129,32.6246 2.2183,-1.6364 2.764,-0.5454 1.3819,1.0909 c 0,0 -1.091,2.473 -5.3096,1.9638 0,0 -1.4184,-0.2547 -1.0546,-0.8729 z"
         style="fill:#efac6c;fill-rule:evenodd"
         id="path205" />
      <path
         d="m 74.6175,31.3739 c 1.4911,0 2.6997,0.6103 2.6997,1.3634 0,0.7531 -1.2086,1.3634 -2.6997,1.3634 -1.4909,0 -2.6996,-0.6103 -2.6996,-1.3634 0,-0.7531 1.2087,-1.3634 2.6996,-1.3634 z"
         style="fill:#efac6c;fill-rule:evenodd"
         id="path207" />
      <path
         d="m 45.7217,46.7475 c 0,0 -1.1273,4.7803 0.9922,9.1096 0,0 5.8178,0.1803 7.3961,-0.2255 0,0 1.9845,0.1354 6.5392,-6.6293 0,0 0.0899,-4.6001 -1.8041,-7.0805 0,0 -2.6605,-1.6236 -8.0724,0 z"
         style="fill:#efac6c;fill-rule:evenodd"
         id="path209" />
      <path
         d="m 45.3553,69.0122 2.7982,-1.975 2.6333,1.975 -0.2056,3.7445 -2.6747,1.7283 -2.5101,-2.0986 z"
         style="fill:#efac6c;fill-rule:evenodd"
         id="path211" />
      <path
         d="m 57.7206,74.8278 1.6436,-2.3044 2.7788,0.1017 2.0163,3.338 -1.9316,2.6432 -2.7111,-0.2711 z"
         style="fill:#efac6c;fill-rule:evenodd"
         id="path213" />
      <path
         d="m 33.9702,58.9966 1.8373,-2.4906 1.7556,1.2453 -0.143,3.7971 -1.8779,2.1639 -1.5313,-1.1637 z"
         style="fill:#efac6c;fill-rule:evenodd"
         id="path215" />
      <path
         d="m 37.9502,61.8088 2.9521,-6.3526 5.2316,0.411 1.9432,5.5307 -3.4006,6.3151 -4.671,-0.2616 z"
         style="fill:#1b1918;fill-rule:evenodd"
         id="path217" />
      <path
         d="m 49.8912,61.6296 4.596,-5.6455 6.9484,0.5428 2.0989,6.7674 -4.596,5.8626 -6.4418,-1.2305 z"
         style="fill:#1b1918;fill-rule:evenodd"
         id="path219" />
      <path
         d="m 66.8689,56.94 3.6087,-2.0733 c 0,0 -0.2304,0.1536 2.9562,1.7661 l -0.192,3.6855 -3.3402,2.4954 -3.3399,-2.1114 z"
         style="fill:#1b1918;fill-rule:evenodd"
         id="path221" />
      <path
         d="m 77.2728,48.5323 2.0349,-2.3803 2.7642,0.115 1.6122,2.3037 c 0,0 -1.4205,2.2268 -1.4205,2.9561 l -3.2631,-0.3456 z"
         style="fill:#1b1918;fill-rule:evenodd"
         id="path223" />
      <path
         d="m 82.3018,36.2482 c 0.7628,0 1.3812,0.4926 1.3812,1.1002 0,0.6076 -0.6184,1.1002 -1.3812,1.1002 -0.7627,0 -1.3811,-0.4926 -1.3811,-1.1002 0,-0.6076 0.6184,-1.1002 1.3811,-1.1002 z"
         style="fill:#1b1918;fill-rule:evenodd"
         id="path225" />
      <path
         d="m 58.8476,36.5587 4.8803,-3.1945 6.5216,0.1331 0.488,4.1704 -4.4808,3.3718 -5.7677,-0.3548 c 0,0 -1.597,-4.2148 -1.6414,-4.126 z"
         style="fill:#1b1918;fill-rule:evenodd"
         id="path227" />
      <path
         d="m 71.1369,38.2888 -1.0649,2.2627 2.7951,1.9077 2.8838,-0.9317 0.7986,-2.6176 -1.9965,-1.5526 z"
         style="fill:#1b1918;fill-rule:evenodd"
         id="path229" />
      <path
         d="m 61.7756,48.8035 c 0,0 1.5974,-4.6139 3.9043,-5.5013 l 6.5217,0.2663 2.5288,5.0575 -3.5935,5.457 -7.1873,-0.488 z"
         style="fill:#1b1918;fill-rule:evenodd"
         id="path231" />
      <path
         d="m 78.5569,59.8855 v -5.231 h 1.8022 c 0.4065,0 0.7171,0.0243 0.9313,0.0743 0.2997,0.0693 0.5553,0.1947 0.7672,0.3749 0.2765,0.2338 0.4822,0.531 0.6186,0.8939 0.1375,0.3628 0.2058,0.778 0.2058,1.2443 0,0.3971 -0.0463,0.7489 -0.1389,1.0559 -0.0924,0.3067 -0.2118,0.5612 -0.3567,0.7621 -0.1461,0.201 -0.3045,0.3593 -0.4774,0.4737 -0.1715,0.1158 -0.3799,0.2034 -0.6234,0.263 -0.2447,0.0598 -0.5248,0.0889 -0.8415,0.0889 z m 0.694,-0.6137 h 1.1155 c 0.3444,0 0.6147,-0.0317 0.8109,-0.0961 0.1961,-0.0647 0.3518,-0.1548 0.4687,-0.2717 0.1632,-0.1642 0.291,-0.3859 0.3824,-0.6636 0.0913,-0.2776 0.1376,-0.6137 0.1376,-1.0095 0,-0.5477 -0.0901,-0.9691 -0.2692,-1.2638 -0.1788,-0.2946 -0.3968,-0.492 -0.6539,-0.5917 -0.185,-0.072 -0.4833,-0.1073 -0.8948,-0.1073 h -1.0972 z m 4.4944,0.6137 v -3.7918 h 0.5773 v 0.5808 c 0.1472,-0.269 0.2836,-0.4469 0.409,-0.5322 0.1255,-0.0864 0.263,-0.1289 0.4128,-0.1289 0.2168,0 0.4372,0.0681 0.6612,0.2032 l -0.2288,0.5931 c -0.1559,-0.0878 -0.3118,-0.1316 -0.4677,-0.1316 -0.1399,0 -0.2654,0.0427 -0.3763,0.1268 -0.1108,0.0839 -0.1899,0.2009 -0.2373,0.3506 -0.072,0.2277 -0.1073,0.4774 -0.1073,0.7488 v 1.9812 z m 2.2199,0 V 59.155 h 0.7305 v 0.7305 z m 3.7308,-1.6804 0.6502,-0.0584 c 0.0305,0.263 0.1023,0.4785 0.2156,0.6477 0.1132,0.1681 0.2884,0.3045 0.5259,0.4092 0.2376,0.1035 0.5054,0.1559 0.8025,0.1559 0.2642,0 0.4969,-0.0389 0.6989,-0.118 0.2022,-0.0793 0.3519,-0.1876 0.4505,-0.3252 0.0988,-0.1377 0.1486,-0.2874 0.1486,-0.4482 0,-0.163 -0.0475,-0.3056 -0.1424,-0.4285 -0.0949,-0.1218 -0.252,-0.224 -0.4712,-0.3082 -0.1401,-0.0536 -0.4505,-0.1387 -0.9315,-0.2545 -0.4811,-0.1155 -0.8172,-0.224 -1.0096,-0.3262 -0.2496,-0.1316 -0.4347,-0.2947 -0.5564,-0.4884 -0.1229,-0.1935 -0.1839,-0.4115 -0.1839,-0.6514 0,-0.2655 0.0754,-0.5126 0.2254,-0.7415 0.1497,-0.2302 0.3677,-0.4044 0.6562,-0.5236 0.2875,-0.1193 0.6076,-0.1791 0.9595,-0.1791 0.3873,0 0.7294,0.0621 1.0253,0.1876 0.2958,0.1242 0.5237,0.3081 0.6831,0.5516 0.1595,0.2423 0.2448,0.5175 0.257,0.8243 l -0.6649,0.0511 c -0.0353,-0.3299 -0.1559,-0.5796 -0.3616,-0.7475 -0.2059,-0.1694 -0.5102,-0.2533 -0.9121,-0.2533 -0.4189,0 -0.7245,0.0768 -0.9157,0.2302 -0.1912,0.1534 -0.2873,0.3384 -0.2873,0.5551 0,0.1875 0.0681,0.3423 0.2034,0.464 0.1339,0.1206 0.481,0.246 1.0434,0.3726 0.5627,0.1279 0.9486,0.2387 1.1581,0.3336 0.3031,0.1401 0.5285,0.3166 0.6734,0.5322 0.1449,0.2143 0.2167,0.4615 0.2167,0.7415 0,0.2788 -0.0791,0.5394 -0.2387,0.7855 -0.1596,0.246 -0.3872,0.437 -0.6855,0.5734 -0.2983,0.1364 -0.6333,0.2045 -1.007,0.2045 -0.4726,0 -0.8683,-0.0692 -1.1872,-0.2068 -0.3203,-0.1378 -0.57,-0.3446 -0.7514,-0.6223 -0.1825,-0.2765 -0.2776,-0.5894 -0.2873,-0.9389 z m 7.4959,1.2056 c -0.2387,0.2033 -0.4687,0.3457 -0.6893,0.4297 -0.2203,0.0841 -0.4565,0.1256 -0.7098,0.1256 -0.4164,0 -0.7367,-0.1011 -0.9607,-0.3045 -0.224,-0.2022 -0.3361,-0.4615 -0.3361,-0.777 0,-0.185 0.0426,-0.3542 0.1266,-0.5076 0.0852,-0.1534 0.1962,-0.2752 0.3324,-0.3678 0.1376,-0.0926 0.2912,-0.1632 0.4627,-0.2107 0.1268,-0.0328 0.318,-0.0644 0.5725,-0.0961 0.5186,-0.061 0.9022,-0.1352 1.1469,-0.2205 0.0025,-0.0876 0.0036,-0.1436 0.0036,-0.1667 0,-0.2607 -0.0608,-0.4446 -0.1825,-0.5517 -0.1644,-0.1449 -0.4092,-0.2167 -0.733,-0.2167 -0.3033,0 -0.5273,0.0535 -0.6711,0.1594 -0.1449,0.106 -0.2508,0.2935 -0.3201,0.5638 l -0.6284,-0.0876 c 0.0573,-0.2691 0.1511,-0.487 0.2825,-0.6527 0.1315,-0.1656 0.3214,-0.2921 0.5699,-0.3823 0.2472,-0.0889 0.5356,-0.1339 0.8621,-0.1339 0.3238,0 0.5881,0.0377 0.7915,0.1145 0.202,0.0766 0.3519,0.1717 0.4469,0.2873 0.0949,0.1157 0.1618,0.2618 0.2008,0.4383 0.0207,0.1096 0.0317,0.3068 0.0317,0.5906 v 0.8523 c 0,0.5954 0.0135,0.9717 0.0403,1.1313 0.0255,0.1595 0.0791,0.3118 0.157,0.4578 H 97.3161 C 97.2517,59.7503 97.2102,59.592 97.1919,59.4107 Z m -0.0512,-1.4248 c -0.2336,0.095 -0.5844,0.1754 -1.0519,0.2412 -0.2655,0.0377 -0.4531,0.0803 -0.5627,0.1278 -0.1096,0.0474 -0.1935,0.1169 -0.2533,0.207 -0.0596,0.0913 -0.0901,0.1924 -0.0901,0.3045 0,0.1692 0.0646,0.3116 0.1949,0.4248 0.1302,0.1133 0.3203,0.1706 0.5699,0.1706 0.2472,0 0.4675,-0.0536 0.6611,-0.1621 0.1925,-0.1071 0.3349,-0.2543 0.425,-0.4407 0.0695,-0.1449 0.1035,-0.3579 0.1035,-0.6392 z m 1.6378,1.8996 v -3.7918 h 0.5771 v 0.5381 c 0.2776,-0.4127 0.6795,-0.6184 1.2044,-0.6184 0.2288,0 0.4383,0.0413 0.6296,0.1229 0.191,0.0817 0.3347,0.1899 0.4296,0.3227 0.0952,0.1327 0.1621,0.2911 0.1998,0.4736 0.0231,0.1195 0.0353,0.3277 0.0353,0.6248 v 2.3281 h -0.6429 v -2.3038 c 0,-0.2618 -0.0244,-0.4578 -0.0743,-0.5869 -0.05,-0.1291 -0.1388,-0.2325 -0.2655,-0.3105 -0.1266,-0.0768 -0.2763,-0.1158 -0.4469,-0.1158 -0.2726,0 -0.5076,0.0865 -0.7062,0.2607 -0.1985,0.1729 -0.2971,0.5028 -0.2971,0.9875 v 2.0688 z m 6.5108,0 v -0.481 c -0.2398,0.3739 -0.5931,0.5615 -1.0595,0.5615 -0.3019,0 -0.5796,-0.083 -0.8316,-0.2497 -0.2533,-0.1655 -0.4493,-0.3982 -0.5892,-0.6954 -0.139,-0.2983 -0.2082,-0.6404 -0.2082,-1.0276 0,-0.3774 0.0633,-0.7197 0.1887,-1.0277 0.1266,-0.3069 0.3153,-0.5431 0.5674,-0.7063 0.2509,-0.1644 0.5334,-0.2459 0.8438,-0.2459 0.2288,0 0.4322,0.0487 0.6101,0.1449 0.1777,0.0961 0.3226,0.2227 0.4347,0.3774 v -1.8812 h 0.6429 v 5.231 z m -2.0311,-1.8911 c 0,0.4847 0.1024,0.8463 0.3081,1.0863 0.2045,0.2399 0.4469,0.3591 0.7257,0.3591 0.2813,0 0.52,-0.1144 0.7172,-0.3432 0.196,-0.2291 0.2948,-0.5785 0.2948,-1.0485 0,-0.5164 -0.1,-0.8963 -0.3008,-1.1386 -0.1997,-0.2424 -0.4469,-0.3628 -0.7404,-0.3628 -0.2861,0 -0.5248,0.1156 -0.7172,0.3483 -0.1912,0.2325 -0.2874,0.5991 -0.2874,1.0994 z m 6.2331,0.6638 0.6649,0.0876 c -0.1034,0.3861 -0.2971,0.6867 -0.5796,0.8999 -0.2824,0.213 -0.6429,0.3203 -1.0824,0.3203 -0.5528,0 -0.9912,-0.1706 -1.3151,-0.5115 -0.324,-0.3398 -0.4859,-0.8183 -0.4859,-1.4332 0,-0.6356 0.1632,-1.1299 0.4907,-1.4807 0.3276,-0.352 0.7525,-0.5272 1.275,-0.5272 0.5053,0 0.918,0.1716 1.2383,0.5162 0.3203,0.3446 0.481,0.8293 0.481,1.4538 0,0.0379 -0.001,0.0952 -0.004,0.1706 h -2.8238 c 0.0243,0.4152 0.1412,0.7342 0.3531,0.9547 0.2107,0.2204 0.4748,0.3311 0.7903,0.3311 0.235,0 0.4359,-0.0621 0.6014,-0.1862 0.1669,-0.1242 0.2983,-0.3228 0.3957,-0.5954 z m -2.1041,-1.0302 h 2.1115 c -0.028,-0.3191 -0.1096,-0.5578 -0.2424,-0.7172 -0.2033,-0.2471 -0.4686,-0.3714 -0.7938,-0.3714 -0.2948,0 -0.5419,0.0986 -0.7428,0.2958 -0.1997,0.1974 -0.3105,0.4615 -0.3325,0.7928 z m 3.3255,1.1251 0.6356,-0.1023 c 0.0353,0.2545 0.1352,0.4494 0.2983,0.5856 0.1632,0.1353 0.392,0.2034 0.6844,0.2034 0.2958,0 0.5149,-0.0596 0.6587,-0.1802 0.1424,-0.1192 0.2144,-0.2605 0.2144,-0.4226 0,-0.1449 -0.0647,-0.2593 -0.1924,-0.3421 -0.0901,-0.0573 -0.3093,-0.129 -0.6576,-0.218 -0.47,-0.1181 -0.7951,-0.2203 -0.9778,-0.3068 -0.1814,-0.0876 -0.319,-0.207 -0.4128,-0.3604 -0.0937,-0.1522 -0.1412,-0.3215 -0.1412,-0.5065 0,-0.1692 0.039,-0.3251 0.1156,-0.4689 0.0779,-0.1437 0.1827,-0.2629 0.3154,-0.3579 0.0998,-0.0731 0.2362,-0.1352 0.4079,-0.1864 0.1729,-0.0511 0.3568,-0.0766 0.554,-0.0766 0.2971,0 0.5578,0.0425 0.7818,0.1289 0.2252,0.0853 0.3909,0.2022 0.498,0.3483 0.106,0.1474 0.1802,0.3434 0.2204,0.5895 l -0.6283,0.0876 c -0.0279,-0.1972 -0.1107,-0.352 -0.2471,-0.4627 -0.1365,-0.1108 -0.3288,-0.1656 -0.5785,-0.1656 -0.2935,0 -0.504,0.0486 -0.6296,0.1461 -0.1254,0.0974 -0.1887,0.2118 -0.1887,0.3421 0,0.0829 0.0257,0.1584 0.078,0.2253 0.0524,0.0681 0.1339,0.1255 0.246,0.1704 0.0644,0.0245 0.252,0.0793 0.5663,0.1644 0.4528,0.1206 0.7695,0.2205 0.9497,0.2971 0.1802,0.0768 0.3214,0.1901 0.4237,0.3362 0.1036,0.1474 0.1547,0.3299 0.1547,0.5491 0,0.2132 -0.0621,0.4141 -0.1875,0.6028 -0.1254,0.1887 -0.3057,0.3349 -0.5407,0.4383 -0.2363,0.1035 -0.503,0.1548 -0.7999,0.1548 -0.492,0 -0.8683,-0.1025 -1.1265,-0.3058 -0.2581,-0.2046 -0.4225,-0.5065 -0.4943,-0.9071 z m 3.9086,1.1324 v -5.231 h 0.6429 v 1.8824 c 0.2983,-0.3494 0.6745,-0.5235 1.1301,-0.5235 0.2788,0 0.5211,0.0548 0.7281,0.1656 0.2057,0.1107 0.3531,0.263 0.4419,0.4579 0.089,0.1946 0.1327,0.4785 0.1327,0.8485 v 2.4001 h -0.6429 v -2.3976 c 0,-0.3202 -0.0694,-0.5539 -0.207,-0.7002 -0.1387,-0.146 -0.3336,-0.2192 -0.5869,-0.2192 -0.1887,0 -0.3664,0.0489 -0.5333,0.1475 -0.1668,0.0986 -0.2848,0.2325 -0.3568,0.4017 -0.0706,0.168 -0.1059,0.4007 -0.1059,0.6979 v 2.0699 z m 8.6209,-2.0529 v -0.6138 h 2.2137 v 1.9385 c -0.3396,0.2704 -0.6904,0.4749 -1.052,0.6113 -0.3616,0.1364 -0.733,0.2045 -1.1129,0.2045 -0.5138,0 -0.9802,-0.1096 -1.4004,-0.3299 -0.4189,-0.2192 -0.7367,-0.5382 -0.9497,-0.9534 -0.2144,-0.4166 -0.3215,-0.8816 -0.3215,-1.3942 0,-0.509 0.106,-0.9839 0.319,-1.4259 0.2132,-0.4409 0.5188,-0.7683 0.9182,-0.9815 0.3994,-0.2142 0.8596,-0.3215 1.3808,-0.3215 0.3774,0 0.7197,0.061 1.0253,0.1839 0.3056,0.1231 0.5455,0.2935 0.7183,0.5115 0.1743,0.2192 0.3057,0.5053 0.3958,0.8573 l -0.6246,0.1703 c -0.0791,-0.2655 -0.1765,-0.4748 -0.2923,-0.6282 -0.1169,-0.1522 -0.2825,-0.274 -0.4992,-0.3654 -0.2155,-0.0913 -0.4553,-0.1376 -0.7197,-0.1376 -0.3152,0 -0.5881,0.0488 -0.8194,0.1449 -0.2302,0.0963 -0.4152,0.2228 -0.5576,0.3813 -0.1415,0.157 -0.2511,0.3299 -0.3288,0.5174 -0.1328,0.3252 -0.1997,0.6757 -0.1997,1.0545 0,0.4675 0.0802,0.8584 0.2398,1.1739 0.1607,0.3141 0.3946,0.5478 0.7002,0.7 0.3068,0.1523 0.6319,0.229 0.9765,0.229 0.2995,0 0.5918,-0.0584 0.8768,-0.1742 0.2848,-0.1169 0.5003,-0.2398 0.6477,-0.3726 v -0.9801 z m 5.6318,2.0529 v -0.5638 c -0.2947,0.4299 -0.6941,0.6443 -1.1994,0.6443 -0.2229,0 -0.431,-0.0427 -0.6246,-0.1279 -0.1937,-0.0865 -0.3372,-0.1938 -0.431,-0.3227 -0.0938,-0.1304 -0.1596,-0.2886 -0.1974,-0.4761 -0.0255,-0.1266 -0.039,-0.3263 -0.039,-0.5992 v -2.3464 h 0.6429 v 2.0981 c 0,0.3348 0.0135,0.5613 0.039,0.6769 0.0403,0.1694 0.1254,0.3008 0.257,0.3971 0.1302,0.0961 0.291,0.1449 0.4833,0.1449 0.1926,0 0.3728,-0.0488 0.5407,-0.1474 0.168,-0.0986 0.2875,-0.2339 0.3581,-0.4031 0.0695,-0.1692 0.1048,-0.4164 0.1048,-0.739 v -2.0275 h 0.6429 v 3.7918 z m 1.5866,1.4539 v -5.2457 h 0.5844 v 0.498 c 0.1376,-0.1924 0.2935,-0.3373 0.4677,-0.4334 0.1729,-0.0962 0.3836,-0.1449 0.6308,-0.1449 0.3237,0 0.6087,0.0828 0.8559,0.2495 0.2472,0.1658 0.4335,0.4008 0.5601,0.7027 0.1254,0.3032 0.1887,0.6345 0.1887,0.996 0,0.3859 -0.0692,0.7342 -0.2082,1.0449 -0.1387,0.3092 -0.3409,0.5466 -0.6064,0.7121 -0.2641,0.1644 -0.543,0.2474 -0.8353,0.2474 -0.2143,0 -0.4067,-0.0452 -0.5759,-0.1353 -0.1704,-0.0901 -0.3093,-0.2033 -0.4189,-0.3409 v 1.8496 z m 0.5844,-3.3266 c 0,0.4858 0.0986,0.8451 0.2948,1.0776 0.1972,0.2325 0.4359,0.3494 0.7159,0.3494 0.285,0 0.5285,-0.1206 0.7307,-0.3616 0.2033,-0.2412 0.3043,-0.6137 0.3043,-1.1191 0,-0.4822 -0.0986,-0.8426 -0.297,-1.0824 -0.1985,-0.2398 -0.4347,-0.3593 -0.71,-0.3593 -0.2727,0 -0.5139,0.1279 -0.7232,0.3824 -0.2107,0.2557 -0.3155,0.626 -0.3155,1.113 z m 4.8743,1.2993 0.0878,0.5672 c -0.1802,0.0379 -0.3423,0.0574 -0.4836,0.0574 -0.2325,0 -0.4127,-0.0365 -0.5418,-0.1108 -0.1279,-0.0743 -0.218,-0.1706 -0.2703,-0.2912 -0.0523,-0.1204 -0.0779,-0.3737 -0.0779,-0.7596 v -2.1846 h -0.4749 v -0.4968 h 0.4749 v -0.9375 l 0.6429,-0.3861 v 1.3236 h 0.6429 v 0.4968 h -0.6429 v 2.2211 c 0,0.1839 0.011,0.3019 0.0341,0.3542 0.0218,0.0525 0.0585,0.0938 0.1096,0.1254 0.0512,0.0305 0.1243,0.0464 0.2192,0.0464 0.0706,0 0.1644,-0.0085 0.28,-0.0255 z m 3.1111,0.0986 c -0.2387,0.2033 -0.4687,0.3457 -0.6892,0.4297 -0.2204,0.0841 -0.4566,0.1256 -0.7099,0.1256 -0.4164,0 -0.7367,-0.1011 -0.9607,-0.3045 -0.224,-0.2022 -0.3361,-0.4615 -0.3361,-0.777 0,-0.185 0.0426,-0.3542 0.1266,-0.5076 0.0853,-0.1534 0.1962,-0.2752 0.3324,-0.3678 0.1376,-0.0926 0.2912,-0.1632 0.4627,-0.2107 0.1268,-0.0328 0.318,-0.0644 0.5725,-0.0961 0.5186,-0.061 0.9022,-0.1352 1.1469,-0.2205 0.003,-0.0876 0.004,-0.1436 0.004,-0.1667 0,-0.2607 -0.0607,-0.4446 -0.1825,-0.5517 -0.1644,-0.1449 -0.4092,-0.2167 -0.733,-0.2167 -0.3033,0 -0.5273,0.0535 -0.6711,0.1594 -0.1449,0.106 -0.2508,0.2935 -0.3201,0.5638 l -0.6284,-0.0876 c 0.0573,-0.2691 0.1511,-0.487 0.2825,-0.6527 0.1316,-0.1656 0.3214,-0.2921 0.5699,-0.3823 0.2472,-0.0889 0.5357,-0.1339 0.8621,-0.1339 0.3238,0 0.5881,0.0377 0.7915,0.1145 0.202,0.0766 0.3519,0.1717 0.4469,0.2873 0.0949,0.1157 0.1619,0.2618 0.2008,0.4383 0.0207,0.1096 0.0317,0.3068 0.0317,0.5906 v 0.8523 c 0,0.5954 0.0135,0.9717 0.0403,1.1313 0.0255,0.1595 0.0791,0.3118 0.1571,0.4578 h -0.6723 c -0.0644,-0.1352 -0.1059,-0.2935 -0.1242,-0.4748 z m -0.0512,-1.4248 c -0.2336,0.095 -0.5844,0.1754 -1.0519,0.2412 -0.2655,0.0377 -0.4531,0.0803 -0.5626,0.1278 -0.1096,0.0474 -0.1936,0.1169 -0.2534,0.207 -0.0596,0.0913 -0.0901,0.1924 -0.0901,0.3045 0,0.1692 0.0646,0.3116 0.1949,0.4248 0.1302,0.1133 0.3203,0.1706 0.57,0.1706 0.2471,0 0.4675,-0.0536 0.661,-0.1621 0.1926,-0.1071 0.335,-0.2543 0.4251,-0.4407 0.0694,-0.1449 0.1034,-0.3579 0.1034,-0.6392 z m 1.6488,-1.483 -0.1644,-0.9753 v -0.8731 h 0.7305 v 0.8731 l -0.1715,0.9753 z m 1.1287,2.2502 0.6356,-0.1023 c 0.0353,0.2545 0.1353,0.4494 0.2983,0.5856 0.1632,0.1353 0.3921,0.2034 0.6844,0.2034 0.2958,0 0.515,-0.0596 0.6587,-0.1802 0.1424,-0.1192 0.2144,-0.2605 0.2144,-0.4226 0,-0.1449 -0.0647,-0.2593 -0.1924,-0.3421 -0.0901,-0.0573 -0.3093,-0.129 -0.6576,-0.218 -0.47,-0.1181 -0.7951,-0.2203 -0.9778,-0.3068 -0.1814,-0.0876 -0.319,-0.207 -0.4127,-0.3604 -0.0938,-0.1522 -0.1413,-0.3215 -0.1413,-0.5065 0,-0.1692 0.039,-0.3251 0.1156,-0.4689 0.078,-0.1437 0.1827,-0.2629 0.3155,-0.3579 0.0997,-0.0731 0.2361,-0.1352 0.4079,-0.1864 0.1729,-0.0511 0.3567,-0.0766 0.5539,-0.0766 0.2972,0 0.5578,0.0425 0.7818,0.1289 0.2252,0.0853 0.391,0.2022 0.498,0.3483 0.106,0.1474 0.1803,0.3434 0.2204,0.5895 l -0.6282,0.0876 c -0.028,-0.1972 -0.1108,-0.352 -0.2472,-0.4627 -0.1364,-0.1108 -0.3288,-0.1656 -0.5785,-0.1656 -0.2934,0 -0.504,0.0486 -0.6296,0.1461 -0.1254,0.0974 -0.1887,0.2118 -0.1887,0.3421 0,0.0829 0.0257,0.1584 0.078,0.2253 0.0525,0.0681 0.1339,0.1255 0.246,0.1704 0.0644,0.0245 0.252,0.0793 0.5663,0.1644 0.4529,0.1206 0.7695,0.2205 0.9497,0.2971 0.1802,0.0768 0.3214,0.1901 0.4237,0.3362 0.1036,0.1474 0.1548,0.3299 0.1548,0.5491 0,0.2132 -0.0622,0.4141 -0.1876,0.6028 -0.1254,0.1887 -0.3056,0.3349 -0.5406,0.4383 -0.2364,0.1035 -0.5031,0.1548 -0.8,0.1548 -0.492,0 -0.8683,-0.1025 -1.1264,-0.3058 -0.2582,-0.2046 -0.4226,-0.5065 -0.4944,-0.9071 z"
         style="fill:#1b1918;fill-rule:evenodd"
         id="path233" />
      <path
         d="m 76.0559,72.8335 1.7954,-0.1613 c 0.0839,0.7263 0.2823,1.3213 0.5951,1.7886 0.3125,0.4639 0.7966,0.8405 1.4523,1.1296 0.6556,0.2857 1.3952,0.4304 2.2156,0.4304 0.7295,0 1.3717,-0.1076 1.9297,-0.3261 0.5582,-0.2186 0.9717,-0.5178 1.2439,-0.8977 0.2725,-0.38 0.4102,-0.7935 0.4102,-1.2372 0,-0.4506 -0.131,-0.8438 -0.3934,-1.1834 -0.2622,-0.3363 -0.6958,-0.6186 -1.301,-0.8507 -0.3867,-0.1478 -1.244,-0.3832 -2.5719,-0.7025 -1.328,-0.3195 -2.2559,-0.6186 -2.7871,-0.9011 -0.6892,-0.3631 -1.2003,-0.8136 -1.5364,-1.3481 -0.3396,-0.5347 -0.5077,-1.1365 -0.5077,-1.7987 0,-0.733 0.2084,-1.4154 0.6219,-2.0475 0.4137,-0.6354 1.0155,-1.1163 1.8122,-1.4456 0.7934,-0.3296 1.6776,-0.4942 2.6491,-0.4942 1.0692,0 2.014,0.1714 2.831,0.5177 0.8169,0.3429 1.4455,0.8505 1.886,1.523 0.4403,0.6691 0.6757,1.4287 0.7093,2.276 l -1.8355,0.1412 c -0.0976,-0.9111 -0.4305,-1.6003 -0.9985,-2.0641 -0.5682,-0.4674 -1.4087,-0.6995 -2.5182,-0.6995 -1.1565,0 -2.0005,0.2119 -2.5282,0.6356 -0.5279,0.4235 -0.7934,0.9346 -0.7934,1.533 0,0.5176 0.1881,0.9446 0.5613,1.281 0.3699,0.3328 1.3281,0.6789 2.8813,1.0288 1.5532,0.3529 2.6191,0.6589 3.1973,0.9211 0.8371,0.3867 1.4591,0.874 1.8591,1.4691 0.4002,0.5918 0.5985,1.2742 0.5985,2.0476 0,0.7698 -0.2186,1.4893 -0.6589,2.1683 -0.4405,0.6792 -1.0691,1.2071 -1.8928,1.5835 -0.8237,0.3767 -1.7483,0.565 -2.7804,0.565 -1.3045,0 -2.3972,-0.1918 -3.278,-0.5717 -0.8843,-0.3799 -1.5735,-0.9514 -2.0744,-1.7178 -0.5042,-0.7633 -0.7664,-1.6274 -0.7934,-2.5923 z m 13.8649,4.6396 V 63.03 h 1.7751 v 8.2267 l 4.1957,-4.2527 h 2.293 l -3.9941,3.8898 4.3975,6.5793 h -2.1853 l -3.4763,-5.3489 -1.2305,1.1969 v 4.152 z M 100,65.0473 V 63.03 h 1.7752 v 2.0173 z m 0,12.4258 V 67.004 h 1.7752 v 10.4691 z m 4.4816,0 V 67.004 h 1.5936 v 1.4859 c 0.7666,-1.1398 1.876,-1.7078 3.3251,-1.7078 0.6321,0 1.2103,0.1142 1.7381,0.3394 0.5279,0.2253 0.9246,0.5246 1.1868,0.891 0.2622,0.3664 0.447,0.8034 0.5514,1.3078 0.0639,0.3296 0.0975,0.9044 0.0975,1.7248 v 6.428 h -1.7752 v -6.3609 c 0,-0.7228 -0.0673,-1.264 -0.2051,-1.6204 -0.1377,-0.3563 -0.3832,-0.6421 -0.733,-0.8574 -0.3496,-0.2117 -0.7631,-0.3194 -1.2337,-0.3194 -0.7531,0 -1.402,0.2387 -1.9499,0.7196 -0.5482,0.4773 -0.8204,1.3884 -0.8204,2.7265 v 5.712 z m 16.8234,0 V 67.004 h 1.5935 v 1.4859 c 0.7666,-1.1398 1.8761,-1.7078 3.3251,-1.7078 0.6321,0 1.2104,0.1142 1.7381,0.3394 0.5279,0.2253 0.9246,0.5246 1.1868,0.891 0.2622,0.3664 0.4471,0.8034 0.5515,1.3078 0.0638,0.3296 0.0974,0.9044 0.0974,1.7248 v 6.428 h -1.7751 v -6.3609 c 0,-0.7228 -0.0673,-1.264 -0.2051,-1.6204 -0.1378,-0.3563 -0.3832,-0.6421 -0.733,-0.8574 -0.3496,-0.2117 -0.7631,-0.3194 -1.2337,-0.3194 -0.7531,0 -1.402,0.2387 -1.95,0.7196 -0.5481,0.4773 -0.8204,1.3884 -0.8204,2.7265 v 5.712 z m 16.9646,0 V 63.03 h 1.9163 v 12.7487 h 7.1005 v 1.6944 z m 17.916,-1.311 c -0.6589,0.5612 -1.2943,0.9547 -1.9029,1.1866 -0.6085,0.2321 -1.2607,0.3463 -1.9599,0.3463 -1.15,0 -2.0341,-0.279 -2.6527,-0.8404 -0.6186,-0.5582 -0.9279,-1.2743 -0.9279,-2.1451 0,-0.5109 0.1177,-0.9782 0.3497,-1.4019 0.2352,-0.4235 0.5412,-0.7598 0.9178,-1.0153 0.3799,-0.2555 0.8034,-0.4505 1.2775,-0.5816 0.3496,-0.0908 0.8776,-0.1782 1.5801,-0.2656 1.4322,-0.1681 2.4913,-0.3732 3.167,-0.6086 0.007,-0.242 0.0101,-0.3967 0.0101,-0.4606 0,-0.7195 -0.1681,-1.2271 -0.5042,-1.5229 -0.454,-0.4 -1.1297,-0.5985 -2.024,-0.5985 -0.837,0 -1.4558,0.148 -1.8525,0.4405 -0.4,0.2925 -0.6925,0.8102 -0.8841,1.5567 l -1.7348,-0.2422 c 0.158,-0.743 0.4167,-1.3448 0.7799,-1.8019 0.3631,-0.4573 0.8875,-0.8069 1.5735,-1.0558 0.6824,-0.2455 1.4793,-0.3697 2.3802,-0.3697 0.8943,0 1.6238,0.1042 2.1853,0.316 0.5582,0.2117 0.9717,0.4739 1.2339,0.7934 0.2622,0.3194 0.4471,0.7228 0.5547,1.2102 0.0572,0.3027 0.0874,0.8472 0.0874,1.6306 v 2.3534 c 0,1.6441 0.0371,2.6829 0.111,3.1232 0.0706,0.4405 0.2184,0.8608 0.4337,1.2642 h -1.8559 C 156.3504,77.1 156.236,76.663 156.1856,76.1621 Z m -0.1412,-3.9337 c -0.6455,0.2622 -1.6137,0.4841 -2.9047,0.6657 -0.733,0.1042 -1.2507,0.2219 -1.5532,0.3531 -0.3028,0.131 -0.5347,0.3226 -0.6995,0.5715 -0.1645,0.2522 -0.2487,0.5312 -0.2487,0.8405 0,0.4673 0.1781,0.8605 0.538,1.1733 0.3596,0.3126 0.8841,0.4706 1.5733,0.4706 0.6826,0 1.291,-0.1478 1.8257,-0.4471 0.5311,-0.2957 0.9246,-0.7027 1.1733,-1.2171 0.1916,-0.4 0.2857,-0.9883 0.2857,-1.7649 z m 3.8159,2.118 1.7549,-0.2823 c 0.0976,0.7026 0.3733,1.2405 0.8237,1.6171 0.4505,0.3732 1.0826,0.5615 1.8895,0.5615 0.8169,0 1.422,-0.1648 1.8187,-0.4976 0.3935,-0.3296 0.5918,-0.7195 0.5918,-1.1666 0,-0.4001 -0.1781,-0.7162 -0.5312,-0.9448 -0.2487,-0.1581 -0.854,-0.3564 -1.8154,-0.6018 -1.2978,-0.3261 -2.1954,-0.6084 -2.6998,-0.8471 -0.5009,-0.2421 -0.8808,-0.5717 -1.1397,-0.9952 -0.2588,-0.4203 -0.39,-0.8876 -0.39,-1.3987 0,-0.4673 0.1077,-0.8976 0.3194,-1.2943 0.2153,-0.3967 0.5043,-0.7262 0.8707,-0.9885 0.2758,-0.2016 0.6524,-0.3731 1.1263,-0.5144 0.4775,-0.141 0.9852,-0.2116 1.5299,-0.2116 0.8202,0 1.5397,0.1175 2.1583,0.3563 0.6219,0.2353 1.0792,0.5581 1.3751,0.9615 0.2924,0.4067 0.4975,0.9482 0.6084,1.6271 l -1.7348,0.2422 c -0.0772,-0.5447 -0.3058,-0.9717 -0.6825,-1.2775 -0.3764,-0.306 -0.9076,-0.4573 -1.5968,-0.4573 -0.8104,0 -1.3919,0.1345 -1.7383,0.4034 -0.3461,0.269 -0.5209,0.5851 -0.5209,0.9447 0,0.2287 0.0704,0.4371 0.2151,0.6221 0.1445,0.1881 0.3697,0.3461 0.679,0.4706 0.1783,0.0671 0.696,0.2186 1.5635,0.4538 1.2506,0.3328 2.1247,0.6086 2.6223,0.8204 0.4974,0.2119 0.8876,0.5245 1.1699,0.9279 0.2857,0.4067 0.427,0.9111 0.427,1.5162 0,0.5885 -0.1714,1.1432 -0.5177,1.6642 -0.3464,0.5211 -0.844,0.9246 -1.4929,1.2103 -0.6521,0.2858 -1.3884,0.427 -2.2086,0.427 -1.3584,0 -2.3972,-0.2824 -3.11,-0.8439 -0.7127,-0.5648 -1.1665,-1.3985 -1.3649,-2.5047 z m 17.9328,-0.2622 1.8357,0.2422 c -0.2857,1.0656 -0.8204,1.8961 -1.6003,2.4844 -0.7799,0.5884 -1.7751,0.8842 -2.9888,0.8842 -1.5264,0 -2.7367,-0.4706 -3.6309,-1.412 -0.8943,-0.9381 -1.3415,-2.2592 -1.3415,-3.9571 0,-1.7549 0.4505,-3.1198 1.3548,-4.0882 0.9044,-0.9715 2.0777,-1.4556 3.52,-1.4556 1.3954,0 2.535,0.4739 3.4192,1.4255 0.8843,0.9514 1.3281,2.2895 1.3281,4.0141 0,0.1042 -0.004,0.2622 -0.0102,0.4708 h -7.7965 c 0.0674,1.1463 0.3902,2.0271 0.975,2.6356 0.5817,0.6086 1.3113,0.9146 2.182,0.9146 0.6489,0 1.2036,-0.1715 1.6607,-0.5144 0.4608,-0.343 0.8237,-0.891 1.0927,-1.6441 z M 171.9836,71.24 h 5.8298 c -0.0774,-0.8809 -0.3026,-1.5398 -0.6692,-1.9803 -0.5613,-0.6824 -1.2943,-1.0253 -2.1919,-1.0253 -0.8136,0 -1.4961,0.2722 -2.0508,0.8169 -0.5515,0.5447 -0.8573,1.2743 -0.9179,2.1887 z m 9.8674,6.2331 V 67.004 h 1.5938 v 1.6036 c 0.4067,-0.7431 0.7831,-1.2339 1.1295,-1.4692 0.3463,-0.2388 0.7262,-0.3563 1.1397,-0.3563 0.5985,0 1.2069,0.1881 1.8255,0.5613 l -0.6319,1.6373 c -0.4305,-0.2419 -0.8607,-0.3631 -1.291,-0.3631 -0.3867,0 -0.733,0.1177 -1.0389,0.3496 -0.306,0.2321 -0.5246,0.5547 -0.6556,0.9684 -0.1983,0.6286 -0.2958,1.3179 -0.2958,2.0677 v 5.4698 z m 22.8516,-5.0664 1.9162,0.4841 c -0.4,1.57 -1.1195,2.7634 -2.1583,3.5871 -1.0388,0.8237 -2.3098,1.2374 -3.8125,1.2374 -1.5532,0 -2.8174,-0.3161 -3.7924,-0.9516 -0.9749,-0.6319 -1.7145,-1.5498 -2.2222,-2.7501 -0.5076,-1.2036 -0.7633,-2.4912 -0.7633,-3.8696 0,-1.5029 0.2858,-2.814 0.8608,-3.9336 0.5748,-1.1195 1.3919,-1.97 2.4508,-2.5518 1.0591,-0.5815 2.2257,-0.8706 3.4966,-0.8706 1.4456,0 2.6592,0.3665 3.6409,1.1027 0.985,0.7363 1.671,1.7684 2.0576,3.0998 l -1.876,0.4437 c -0.3328,-1.0488 -0.8202,-1.8154 -1.4558,-2.2928 -0.6354,-0.4808 -1.4355,-0.7195 -2.4005,-0.7195 -1.1059,0 -2.0338,0.2655 -2.7769,0.7967 -0.743,0.5312 -1.2674,1.2474 -1.5667,2.1417 -0.3025,0.8976 -0.4538,1.8222 -0.4538,2.7737 0,1.2271 0.1781,2.2995 0.5344,3.2139 0.3564,0.9179 0.9112,1.6003 1.6642,2.0543 0.7531,0.4538 1.5668,0.679 2.4443,0.679 1.0691,0 1.97,-0.3093 2.7098,-0.9244 0.7395,-0.6186 1.2404,-1.5332 1.5028,-2.7501 z m 11.1988,1.6775 1.8357,0.2422 c -0.2858,1.0656 -0.8205,1.8961 -1.6003,2.4844 -0.7799,0.5884 -1.7752,0.8842 -2.9888,0.8842 -1.5264,0 -2.7368,-0.4706 -3.6309,-1.412 -0.8943,-0.9381 -1.3416,-2.2592 -1.3416,-3.9571 0,-1.7549 0.4505,-3.1198 1.3549,-4.0882 0.9043,-0.9715 2.0777,-1.4556 3.52,-1.4556 1.3954,0 2.5349,0.4739 3.4192,1.4255 0.8843,0.9514 1.328,2.2895 1.328,4.0141 0,0.1042 -0.003,0.2622 -0.0102,0.4708 h -7.7964 c 0.0673,1.1463 0.3901,2.0271 0.9749,2.6356 0.5818,0.6086 1.3113,0.9146 2.1821,0.9146 0.6489,0 1.2036,-0.1715 1.6607,-0.5144 0.4607,-0.343 0.8237,-0.891 1.0927,-1.6441 z M 210.0919,71.24 h 5.8297 c -0.0774,-0.8809 -0.3025,-1.5398 -0.6691,-1.9803 -0.5613,-0.6824 -1.2943,-1.0253 -2.1919,-1.0253 -0.8137,0 -1.4961,0.2722 -2.0509,0.8169 -0.5514,0.5447 -0.8572,1.2743 -0.9178,2.1887 z m 9.8876,6.2331 V 67.004 h 1.5936 v 1.4859 c 0.7666,-1.1398 1.876,-1.7078 3.325,-1.7078 0.6321,0 1.2104,0.1142 1.7381,0.3394 0.5279,0.2253 0.9246,0.5246 1.1868,0.891 0.2623,0.3664 0.4471,0.8034 0.5515,1.3078 0.0639,0.3296 0.0974,0.9044 0.0974,1.7248 v 6.428 h -1.7751 v -6.3609 c 0,-0.7228 -0.0673,-1.264 -0.2051,-1.6204 -0.1378,-0.3563 -0.3832,-0.6421 -0.733,-0.8574 -0.3496,-0.2117 -0.7631,-0.3194 -1.2337,-0.3194 -0.7531,0 -1.402,0.2387 -1.95,0.7196 -0.5481,0.4773 -0.8204,1.3884 -0.8204,2.7265 v 5.712 z m 15.0718,-1.5835 0.2421,1.5668 c -0.4976,0.1041 -0.9446,0.158 -1.3348,0.158 -0.6421,0 -1.1395,-0.1009 -1.4959,-0.306 -0.3531,-0.2051 -0.6018,-0.4706 -0.7465,-0.8035 -0.1446,-0.3328 -0.2152,-1.0321 -0.2152,-2.0979 v -6.0314 h -1.3111 V 67.004 h 1.3111 v -2.5888 l 1.7752,-1.0659 v 3.6547 h 1.7751 v 1.3716 h -1.7751 v 6.1323 c 0,0.5077 0.0302,0.8337 0.0941,0.9783 0.0606,0.1445 0.1615,0.2589 0.3026,0.3463 0.1412,0.0841 0.343,0.1277 0.6052,0.1277 0.1949,0 0.4538,-0.0235 0.7732,-0.0706 z m 1.7313,1.5835 V 67.004 h 1.5938 v 1.6036 c 0.4067,-0.7431 0.7831,-1.2339 1.1295,-1.4692 0.3463,-0.2388 0.7262,-0.3563 1.1397,-0.3563 0.5985,0 1.2069,0.1881 1.8255,0.5613 l -0.6319,1.6373 c -0.4305,-0.2419 -0.8607,-0.3631 -1.291,-0.3631 -0.3867,0 -0.733,0.1177 -1.0389,0.3496 -0.306,0.2321 -0.5246,0.5547 -0.6556,0.9684 -0.1983,0.6286 -0.2958,1.3179 -0.2958,2.0677 v 5.4698 z m 13.8784,-3.3889 1.8357,0.2422 c -0.2858,1.0656 -0.8204,1.8961 -1.6003,2.4844 -0.7799,0.5884 -1.7751,0.8842 -2.9888,0.8842 -1.5264,0 -2.7368,-0.4706 -3.6309,-1.412 -0.8943,-0.9381 -1.3416,-2.2592 -1.3416,-3.9571 0,-1.7549 0.4506,-3.1198 1.3549,-4.0882 0.9044,-0.9715 2.0777,-1.4556 3.52,-1.4556 1.3954,0 2.5349,0.4739 3.4192,1.4255 0.8843,0.9514 1.3281,2.2895 1.3281,4.0141 0,0.1042 -0.004,0.2622 -0.0102,0.4708 h -7.7965 c 0.0673,1.1463 0.3901,2.0271 0.975,2.6356 0.5817,0.6086 1.3112,0.9146 2.182,0.9146 0.6489,0 1.2036,-0.1715 1.6607,-0.5144 0.4608,-0.343 0.8237,-0.891 1.0927,-1.6441 z M 244.8515,71.24 h 5.8297 c -0.0773,-0.8809 -0.3025,-1.5398 -0.6691,-1.9803 -0.5613,-0.6824 -1.2943,-1.0253 -2.1919,-1.0253 -0.8137,0 -1.4961,0.2722 -2.0508,0.8169 -0.5515,0.5447 -0.8573,1.2743 -0.9179,2.1887 z"
         style="fill:#1b1918;fill-rule:evenodd"
         id="path235" />
    </g>
  </g>
</svg>
